<svg width="10" height="10" viewBox="0 0 10 10" fill="none" xmlns="http://www.w3.org/2000/svg">
<path fill-rule="evenodd" clip-rule="evenodd" d="M3.84137 8.8354L3.84137 6.14907L1.15085 6.14907C0.513219 6.14907 -2.46386e-07 5.63665 -2.18557e-07 5C-1.90728e-07 4.36335 0.513219 3.8354 1.15085 3.8354L3.84137 3.8354L3.84137 1.1646C3.84137 0.52795 4.35459 -2.46769e-07 4.99222 -2.18897e-07C5.64541 -1.90345e-07 6.15863 0.52795 6.15863 1.1646L6.15863 3.8354L8.84914 3.8354C9.48678 3.8354 10 4.36335 10 5C10 5.63665 9.48678 6.14907 8.84914 6.14907L6.15863 6.14907L6.15863 8.8354C6.15863 9.47205 5.64541 10 4.99222 10C4.35459 10 3.84137 9.47205 3.84137 8.8354Z" fill="#CCCCCC"/>
</svg>
