<svg width="10" height="10" viewBox="0 0 10 10" fill="none" xmlns="http://www.w3.org/2000/svg">
<path fill-rule="evenodd" clip-rule="evenodd" d="M8.8354 6.15863H6.14907V8.84914C6.14907 9.48678 5.63665 10 5 10C4.36335 10 3.8354 9.48678 3.8354 8.84914V6.15863H1.1646C0.52795 6.15863 0 5.64541 0 5.00778C0 4.35459 0.52795 3.84137 1.1646 3.84137H3.8354V1.15086C3.8354 0.513219 4.36335 0 5 0C5.63665 0 6.14907 0.513219 6.14907 1.15086V3.84137H8.8354C9.47205 3.84137 10 4.35459 10 5.00778C10 5.64541 9.47205 6.15863 8.8354 6.15863Z" fill="#8775FE"/>
</svg>
