<svg width="20" height="22" viewBox="0 0 20 22" fill="none" xmlns="http://www.w3.org/2000/svg">
<path d="M19.1563 18.7946L18.203 6.70083C18.148 5.94833 17.5063 5.375 16.7363 5.375H15.0496V4.92708C15.0496 2.20375 12.7763 0 10.008 0C7.22128 0 4.96628 2.20375 4.96628 4.92708V5.375H3.15128C2.38127 5.375 1.73961 5.96625 1.68461 6.71875L0.841271 18.8304C0.749604 20.2817 1.92294 21.5 3.40794 21.5H16.5896C18.093 21.5 19.2663 20.2458 19.1563 18.7946ZM6.79962 4.92708C6.79962 3.20708 8.22962 1.79167 10.008 1.79167C11.7863 1.79167 13.2163 3.20708 13.2163 4.92708V5.375H6.79962V4.92708ZM5.42461 11.6458C5.42461 11.1442 5.82795 10.75 6.34128 10.75C6.85462 10.75 7.25795 11.1442 7.25795 11.6458C7.25795 12.1475 6.85462 12.5417 6.34128 12.5417C5.82795 12.5417 5.42461 12.1475 5.42461 11.6458ZM14.2063 15.5517C13.8763 17.0208 12.1163 18.0958 10.008 18.0958C7.89962 18.0958 6.12128 17.0208 5.79128 15.5517C5.69961 15.1575 5.95628 14.7812 6.35962 14.7096C6.76295 14.62 7.14795 14.8708 7.22128 15.265C7.38628 15.9458 8.46795 16.6625 10.008 16.6625C11.548 16.6625 12.6296 15.9458 12.7763 15.265C12.868 14.8708 13.253 14.6379 13.638 14.7096C14.0413 14.7812 14.2796 15.1754 14.2063 15.5517ZM13.6746 12.5417C13.1613 12.5417 12.758 12.1475 12.758 11.6458C12.758 11.1442 13.1613 10.75 13.6746 10.75C14.188 10.75 14.5913 11.1442 14.5913 11.6458C14.5913 12.1475 14.1696 12.5417 13.6746 12.5417Z" fill="#8775FE"/>
</svg>
