<svg width="58" height="67" viewBox="0 0 58 67" fill="none" xmlns="http://www.w3.org/2000/svg">
<path d="M57.8127 58.569L54.8419 20.8815C54.6705 18.5365 52.6709 16.7499 50.2713 16.7499H45.0152V15.354C45.0152 6.86738 37.9308 -0.00012207 29.3039 -0.00012207C20.6199 -0.00012207 13.5926 6.86738 13.5926 15.354V16.7499H7.93658C5.53704 16.7499 3.53742 18.5924 3.36603 20.9374L0.737959 58.6807C0.4523 63.2032 4.10874 66.9999 8.73643 66.9999H49.8143C54.4991 66.9999 58.1555 63.0915 57.8127 58.569ZM19.3058 15.354C19.3058 9.99404 23.7621 5.58321 29.3039 5.58321C34.8457 5.58321 39.302 9.99404 39.302 15.354V16.7499H19.3058V15.354ZM15.0209 36.2915C15.0209 34.7282 16.2778 33.4999 17.8775 33.4999C19.4772 33.4999 20.7341 34.7282 20.7341 36.2915C20.7341 37.8549 19.4772 39.0832 17.8775 39.0832C16.2778 39.0832 15.0209 37.8549 15.0209 36.2915ZM42.3871 48.4632C41.3587 53.0415 35.8741 56.3915 29.3039 56.3915C22.7337 56.3915 17.1919 53.0415 16.1636 48.4632C15.8779 47.2349 16.6778 46.0624 17.9347 45.839C19.1916 45.5599 20.3913 46.3415 20.6199 47.5699C21.134 49.6915 24.5048 51.9249 29.3039 51.9249C34.103 51.9249 37.4738 49.6915 37.9308 47.5699C38.2165 46.3415 39.4163 45.6157 40.616 45.839C41.8729 46.0624 42.6156 47.2907 42.3871 48.4632ZM40.7303 39.0832C39.1306 39.0832 37.8737 37.8549 37.8737 36.2915C37.8737 34.7282 39.1306 33.4999 40.7303 33.4999C42.33 33.4999 43.5869 34.7282 43.5869 36.2915C43.5869 37.8549 42.2729 39.0832 40.7303 39.0832Z" fill="#979797" fill-opacity="0.27"/>
</svg>
