<svg width="107" height="127" viewBox="0 0 107 127" fill="none" xmlns="http://www.w3.org/2000/svg">
<path d="M106.357 111.019L100.853 39.5813C100.536 35.1363 96.8316 31.7497 92.3866 31.7497H82.6499V29.1038C82.6499 13.0172 69.5266 -0.000244141 53.5458 -0.000244141C37.4591 -0.000244141 24.4416 13.0172 24.4416 29.1038V31.7497H13.9641C9.51912 31.7497 5.81496 35.2422 5.49746 39.6871L0.629124 111.23C0.0999573 119.803 6.87329 126.999 15.4458 126.999H91.5399C100.218 126.999 106.992 119.591 106.357 111.019ZM35.025 29.1038C35.025 18.9439 43.28 10.5831 53.5458 10.5831C63.8116 10.5831 72.0666 18.9439 72.0666 29.1038V31.7497H35.025V29.1038ZM27.0875 68.7912C27.0875 65.8279 29.4158 63.4996 32.3791 63.4996C35.3425 63.4996 37.6708 65.8279 37.6708 68.7912C37.6708 71.7546 35.3425 74.0829 32.3791 74.0829C29.4158 74.0829 27.0875 71.7546 27.0875 68.7912ZM77.7816 91.8628C75.8766 100.541 65.7166 106.891 53.5458 106.891C41.375 106.891 31.1091 100.541 29.2041 91.8628C28.675 89.5345 30.1566 87.312 32.485 86.8887C34.8133 86.3595 37.0358 87.8412 37.4591 90.1695C38.4116 94.1912 44.6558 98.4245 53.5458 98.4245C62.4358 98.4245 68.6799 94.1912 69.5266 90.1695C70.0558 87.8412 72.2783 86.4654 74.5008 86.8887C76.8291 87.312 78.2049 89.6404 77.7816 91.8628ZM74.7124 74.0829C71.7491 74.0829 69.4208 71.7546 69.4208 68.7912C69.4208 65.8279 71.7491 63.4996 74.7124 63.4996C77.6758 63.4996 80.0041 65.8279 80.0041 68.7912C80.0041 71.7546 77.57 74.0829 74.7124 74.0829Z" fill="white"/>
</svg>
